<svg width="24" height="24" viewBox="0 0 24 24" fill="none" xmlns="http://www.w3.org/2000/svg">
<path d="M21.9996 12C21.9996 6.47658 17.5231 2 11.9996 2C6.47622 2 1.99963 6.47658 1.99963 12C1.99963 16.9922 5.65588 21.1289 10.4371 21.8789V14.8906H7.89805V12H10.4371V9.79688C10.4371 7.291 11.9293 5.90625 14.2145 5.90625C15.3082 5.90625 16.4528 6.10156 16.4528 6.10156V8.5625H15.1911C13.9488 8.5625 13.5621 9.334 13.5621 10.125V12H16.3356L15.8922 14.8906H13.5621V21.8789C18.3434 21.1289 21.9996 16.9922 21.9996 12Z" fill="#314158"/>
<path d="M15.8922 14.8906L16.3356 12H13.5622V10.125C13.5622 9.334 13.9489 8.5625 15.1911 8.5625H16.4528V6.10156C16.4528 6.10156 15.3082 5.90625 14.2145 5.90625C11.9294 5.90625 10.4372 7.291 10.4372 9.79687V12H7.89807V14.8906H10.4372V21.8789C10.9469 21.959 11.4684 22 11.9997 22C12.5309 22 13.0524 21.959 13.5622 21.8789V14.8906H15.8922Z" fill="#90A1B9"/>
</svg>
